<svg xmlns="http://www.w3.org/2000/svg" viewBox="0 0 4093 3112"><defs><style>.cls-1{fill:silver;}.cls-2{fill:#c0c000;}.cls-3{fill:#00c0c0;}.cls-4{fill:#00c000;}.cls-5{fill:#c000c0;}.cls-6{fill:#c00000;}.cls-7{fill:#0000c0;}.cls-8{fill:#1a1a1a;}.cls-10,.cls-9{fill:#fff;}.cls-10{font-size:618.75px;font-family:RockwellStd, Rockwell Std;}</style></defs><g id="Layer_2" data-name="Layer 2"><g id="Layer_1-2" data-name="Layer 1"><rect class="cls-1" width="584.76" height="3112"/><rect class="cls-2" x="584.76" width="584.76" height="3112"/><rect class="cls-3" x="1169.51" width="584.76" height="3112"/><rect class="cls-4" x="1754.27" width="584.76" height="3112"/><rect class="cls-5" x="2339.02" width="584.76" height="3112"/><rect class="cls-6" x="2923.61" width="584.76" height="3112"/><rect class="cls-7" x="3508.24" width="584.76" height="3112"/><rect class="cls-8" y="843.95" width="4092.85" height="1416.14"/><path class="cls-9" d="M825.94,1245.05l52.87,29.5q-17.82,67.76-72,105t-124.58,37.23q-92.29,0-148.09-59.87t-55.79-148.1q0-96.66,56.08-153.93t146.34-57.25q79.74,0,134.08,43.52v-37.1h52.57v130.57H814.85q-17.54-39.72-54.05-61.49T684,1051.38q-60.75,0-99.75,43.82t-39,110.7q0,68.67,41.77,112.17t99,43.52q47,0,85.58-30.24T825.94,1245.05Z"/><path class="cls-9" d="M3632.72,1000.2h48.53l-207.36,420.91h-48.51Z"/><path class="cls-9" d="M1655.63,1361v49.38H1549.31v-41.49q-41.47,46.17-101.07,46.16-55.2,0-97-37.7t-41.77-107.18q0-69.83,42.94-110.12t97-40.31q57.25,0,99.9,45.56V1053.44H1495v-49.38h109.83V1361Zm-286.83-92.29q0,46.74,26.43,71.86t63.24,25.12q35.64,0,63.23-26.44t27.61-73.16q0-47.05-28.19-71t-63.24-23.95q-37.68,0-63.38,28.17T1368.8,1268.71Z"/><path class="cls-9" d="M1977.82,1283H1740.05q5.25,39.16,31,63.39t65.72,24.25q58.14,0,92-46.74l49.08,21.61q-24,37.11-62.22,55.07a186.27,186.27,0,0,1-80,18q-64.85,0-110.84-40.47t-46-109.09q0-65.14,44.83-107.21t103-42q57,0,103.25,41T1977.82,1283Zm-57.26-40.3q-5.83-29.81-31-53.89T1828,1164.71q-33.3,0-57,21.77t-28.92,56.23Z"/><path class="cls-9" d="M2373,1245.05l52.87,29.5q-17.82,67.76-72,105t-124.59,37.23q-92.3,0-148.09-59.87t-55.78-148.1q0-96.66,56.07-153.93t146.35-57.25q79.72,0,134.07,43.52v-37.1h52.57v130.57h-52.57q-17.53-39.72-54-61.49t-76.83-21.76q-60.75,0-99.74,43.82t-39,110.7q0,68.67,41.77,112.17t99,43.52q47,0,85.58-30.24T2373,1245.05Z"/><path class="cls-9" d="M2524.63,1361V1177h-57v-49.36H2569v63.66q9.34-24.81,26-41.18t35.19-21.61q18.54-5.25,50.68-5.26h14.61v56.08H2684.4q-42.36,0-63.25,8.47t-31,30.82q-10.08,22.34-10.08,80.18V1361h61.64v49.38h-174.1V1361Z"/><path class="cls-9" d="M2994.88,1283H2757.12q5.25,39.16,31,63.39t65.72,24.25q58.13,0,92-46.74l49.06,21.61q-23.94,37.11-62.21,55.07a186.29,186.29,0,0,1-80,18q-64.83,0-110.85-40.47t-46-109.09q0-65.14,44.84-107.21t103-42q57,0,103.26,41T2994.88,1283Zm-57.24-40.3q-5.86-29.81-31-53.89T2845,1164.71q-33.3,0-57,21.77t-28.91,56.23Z"/><path class="cls-9" d="M3114.47,1415.05,3038.71,1177h-34.48v-49.36h119.19V1177h-37.05l54.13,170.57,54-170.57h-30.81v-49.36h136.7V1177h-31.1l54,170.57L3377.61,1177h-38.92v-49.36h127.65V1177h-40.62l-75.83,238.06h-52.24l-64.84-204.47-66,204.47Z"/><path class="cls-9" d="M413.7,1383.93a25.94,25.94,0,0,1-10.6-2.27L178.31,1281.31c-37.78-16.87-43.43-41.13-43.43-54.09s5.65-37.21,43.43-54.08l224.8-100.36a26,26,0,1,1,21.22,47.53L199.54,1220.68a44.65,44.65,0,0,0-11,6.54,44.24,44.24,0,0,0,11,6.56l224.79,100.34a26,26,0,0,1-10.63,49.81Z"/><path class="cls-9" d="M3681.07,1383.94a26,26,0,0,1-10.62-49.8l224.79-100.36a44.44,44.44,0,0,0,11-6.56,44.85,44.85,0,0,0-11-6.54l-224.79-100.36a26,26,0,1,1,21.23-47.53l224.78,100.35c37.79,16.87,43.43,41.13,43.43,54.08s-5.64,37.22-43.43,54.09l-224.78,100.37A26,26,0,0,1,3681.07,1383.94Z"/><path class="cls-9" d="M1092.54,1421.36c-99.43,0-180.31-80.89-180.31-180.31,0-68.72,40-132.46,101.89-162.39a23.56,23.56,0,0,1,20.51,42.42,134,134,0,0,0-75.28,120c0,73.44,59.75,133.18,133.19,133.18s133.18-59.74,133.18-133.18a134.07,134.07,0,0,0-75.27-120,23.56,23.56,0,1,1,20.52-42.42c61.89,29.94,101.87,93.69,101.87,162.39C1272.84,1340.47,1192,1421.36,1092.54,1421.36Z"/><path class="cls-9" d="M1092.54,1252.6A23.56,23.56,0,0,1,1069,1229V1079.26a23.56,23.56,0,0,1,47.12,0V1229A23.56,23.56,0,0,1,1092.54,1252.6Z"/><path class="cls-9" d="M1212.45,1602.4H1261l-207.35,420.91h-48.52Z"/><path class="cls-9" d="M413.43,1986.13a25.86,25.86,0,0,1-10.59-2.27L178.05,1883.51c-37.79-16.86-43.43-41.13-43.43-54.09s5.64-37.21,43.43-54.08L402.84,1675a26,26,0,0,1,21.22,47.54L199.27,1822.88a44.85,44.85,0,0,0-11,6.54,44.44,44.44,0,0,0,11,6.56l224.79,100.35a26,26,0,0,1-10.63,49.8Z"/><path class="cls-9" d="M1260.81,1986.14a26,26,0,0,1-10.63-49.8L1475,1836a44.24,44.24,0,0,0,11-6.56,44.65,44.65,0,0,0-11-6.54l-224.79-100.36a26,26,0,1,1,21.23-47.53l224.78,100.35c37.79,16.88,43.43,41.13,43.43,54.08s-5.64,37.22-43.43,54.09l-224.78,100.37A25.92,25.92,0,0,1,1260.81,1986.14Z"/><text class="cls-10" transform="translate(476.41 2023.31)">tv</text></g></g></svg>