<svg xmlns="http://www.w3.org/2000/svg" viewBox="0 0 4093 1657.55"><defs><style>.cls-1{fill:silver;}.cls-2{fill:#c0c000;}.cls-3{fill:#00c0c0;}.cls-4{fill:#00c000;}.cls-5{fill:#c000c0;}.cls-6{fill:#c00000;}.cls-7{fill:#0000c0;}.cls-8{fill:#1a1a1a;}.cls-10,.cls-9{fill:#fff;}.cls-10{font-size:618.75px;font-family:RockwellStd, Rockwell Std;}</style></defs><g id="Layer_2" data-name="Layer 2"><g id="Layer_1-2" data-name="Layer 1"><rect class="cls-1" width="584.76" height="1657.55"/><rect class="cls-2" x="584.76" width="584.76" height="1657.55"/><rect class="cls-3" x="1169.51" width="584.76" height="1657.55"/><rect class="cls-4" x="1754.27" width="584.76" height="1657.55"/><rect class="cls-5" x="2339.02" width="584.76" height="1657.55"/><rect class="cls-6" x="2923.61" width="584.76" height="1657.55"/><rect class="cls-7" x="3508.24" width="584.76" height="1657.55"/><rect class="cls-8" y="124.06" width="4092.85" height="1416.14"/><path class="cls-9" d="M825.94,525.15l52.87,29.51q-17.82,67.74-72,105T682.23,696.9q-92.29,0-148.09-59.88T478.35,488.93q0-96.68,56.08-153.94t146.34-57.24q79.74,0,134.08,43.51V284.17h52.57V414.74H814.85Q797.32,375,760.8,353.25T684,331.49q-60.75,0-99.75,43.81T545.24,486q0,68.65,41.77,112.16t99,43.52q47,0,85.58-30.23T825.94,525.15Z"/><path class="cls-9" d="M3632.72,280.31h48.53l-207.36,420.9h-48.51Z"/><path class="cls-9" d="M1655.63,641.1v49.38H1549.31V649q-41.47,46.17-101.07,46.15-55.2,0-97-37.69T1309.5,550.27q0-69.81,42.94-110.12t97-40.3q57.25,0,99.9,45.56V333.54H1495V284.17h109.83V641.1ZM1368.8,548.81q0,46.74,26.43,71.86t63.24,25.12q35.64,0,63.23-26.44t27.61-73.16q0-47.06-28.19-71t-63.24-23.95q-37.68,0-63.38,28.18T1368.8,548.81Z"/><path class="cls-9" d="M1977.82,563.12H1740.05q5.25,39.15,31,63.38t65.72,24.25q58.14,0,92-46.74l49.08,21.61q-24,37.11-62.22,55.07a186.12,186.12,0,0,1-80,18q-64.85,0-110.84-40.46t-46-109.09q0-65.16,44.83-107.22t103-42q57,0,103.25,41T1977.82,563.12Zm-57.26-40.31q-5.83-29.8-31-53.88T1828,444.82q-33.3,0-57,21.77t-28.92,56.22Z"/><path class="cls-9" d="M2373,525.15l52.87,29.51q-17.82,67.74-72,105T2229.3,696.9q-92.3,0-148.09-59.88t-55.78-148.09q0-96.68,56.07-153.94t146.35-57.24q79.72,0,134.07,43.51V284.17h52.57V414.74h-52.57q-17.53-39.72-54-61.49t-76.83-21.76q-60.75,0-99.74,43.81t-39,110.71q0,68.65,41.77,112.16t99,43.52q47,0,85.58-30.23T2373,525.15Z"/><path class="cls-9" d="M2524.63,641.1v-184h-57V407.73H2569V471.4q9.34-24.82,26-41.18t35.19-21.61q18.54-5.26,50.68-5.27h14.61v56.09H2684.4q-42.36,0-63.25,8.46t-31,30.83q-10.08,22.34-10.08,80.17V641.1h61.64v49.38h-174.1V641.1Z"/><path class="cls-9" d="M2994.88,563.12H2757.12q5.25,39.15,31,63.38t65.72,24.25q58.13,0,92-46.74l49.06,21.61q-23.94,37.11-62.21,55.07a186.14,186.14,0,0,1-80,18q-64.83,0-110.85-40.46t-46-109.09q0-65.16,44.84-107.22t103-42q57,0,103.26,41T2994.88,563.12Zm-57.24-40.31q-5.86-29.8-31-53.88T2845,444.82q-33.3,0-57,21.77t-28.91,56.22Z"/><path class="cls-9" d="M3114.47,695.15l-75.76-238.06h-34.48V407.73h119.19v49.36h-37.05l54.13,170.57,54-170.57h-30.81V407.73h136.7v49.36h-31.1l54,170.57,54.26-170.57h-38.92V407.73h127.65v49.36h-40.62l-75.83,238.06h-52.24l-64.84-204.46-66,204.46Z"/><path class="cls-9" d="M413.7,664a26.1,26.1,0,0,1-10.6-2.27L178.31,561.41c-37.78-16.86-43.43-41.12-43.43-54.09s5.65-37.21,43.43-54.07l224.8-100.37a26,26,0,0,1,21.22,47.54L199.54,500.78a45,45,0,0,0-11,6.54,43.93,43.93,0,0,0,11,6.56L424.33,614.23A26,26,0,0,1,413.7,664Z"/><path class="cls-9" d="M3681.07,664a26,26,0,0,1-10.62-49.79l224.79-100.37a44.13,44.13,0,0,0,11-6.56,45.18,45.18,0,0,0-11-6.54L3670.45,400.42a26,26,0,1,1,21.23-47.53l224.78,100.36c37.79,16.87,43.43,41.12,43.43,54.07s-5.64,37.22-43.43,54.09L3691.68,661.79A26.12,26.12,0,0,1,3681.07,664Z"/><path class="cls-9" d="M1092.54,701.46c-99.43,0-180.31-80.88-180.31-180.3,0-68.72,40-132.47,101.89-162.4a23.56,23.56,0,0,1,20.51,42.43,134,134,0,0,0-75.28,120c0,73.44,59.75,133.18,133.19,133.18s133.18-59.74,133.18-133.18a134,134,0,0,0-75.27-120A23.57,23.57,0,0,1,1171,358.76c61.89,29.95,101.87,93.69,101.87,162.4C1272.84,620.58,1192,701.46,1092.54,701.46Z"/><path class="cls-9" d="M1092.54,532.71A23.57,23.57,0,0,1,1069,509.15V359.36a23.56,23.56,0,0,1,47.12,0V509.15A23.57,23.57,0,0,1,1092.54,532.71Z"/><path class="cls-9" d="M1212.45,882.51H1261l-207.35,420.91h-48.52Z"/><path class="cls-9" d="M413.43,1266.24a25.86,25.86,0,0,1-10.59-2.27L178.05,1163.61c-37.79-16.86-43.43-41.12-43.43-54.09s5.64-37.2,43.43-54.07L402.84,955.08a26,26,0,0,1,21.22,47.54L199.27,1103a45.18,45.18,0,0,0-11,6.54,44.08,44.08,0,0,0,11,6.57l224.79,100.34a26,26,0,0,1-10.63,49.81Z"/><path class="cls-9" d="M1260.81,1266.24a26,26,0,0,1-10.63-49.79L1475,1116.09a43.88,43.88,0,0,0,11-6.57,45,45,0,0,0-11-6.54l-224.79-100.36a26,26,0,1,1,21.23-47.53l224.78,100.36c37.79,16.87,43.43,41.12,43.43,54.07s-5.64,37.22-43.43,54.09L1271.41,1264A25.91,25.91,0,0,1,1260.81,1266.24Z"/><text class="cls-10" transform="translate(476.41 1303.42)">tv</text></g></g></svg>